<?xml version="1.0" standalone="no" ?>
<!DOCTYPE svg PUBLIC "-//W3C//DTD SVG 1.1//EN" "http://www.w3.org/Graphics/SVG/1.1/DTD/svg11.dtd">
<svg width="453.033px" height="653.033px" xmlns="http://www.w3.org/2000/svg" version="1.1" >
	<polygon points="-500061,600753 -499608,600753 -499608,600100 -500061,600100 " fill="rgb(211,211,211)" />
	<polygon points="38.8909,653.033 53.033,638.891 14.1421,600 0,614.142 " fill="rgb(144,238,144)" stroke-width="2.5" stroke="rgb(0,128,0)" />
	<polygon points="238.891,453.033 238.891,425.251 183.891,425.251 183.891,430.251 180.355,433.787 219.246,472.678 " fill="rgb(144,238,144)" stroke-width="2.5" stroke="rgb(0,128,0)" />
	<polygon points="238.891,253.033 242.426,249.497 203.536,210.607 183.891,230.251 183.891,258.033 238.891,258.033 " fill="rgb(144,238,144)" stroke-width="2.5" stroke="rgb(0,128,0)" />
	<polygon points="438.891,53.033 453.033,38.8909 414.142,0 400,14.1421 " fill="rgb(144,238,144)" stroke-width="2.5" stroke="rgb(0,128,0)" />
	<line x1="17.6777" y1="603.536" x2="21.2132" y2="607.071" stroke-width="1" stroke="rgb(0,0,0)" />
	<line x1="35.3553" y1="585.858" x2="38.8909" y2="589.393" stroke-width="1" stroke="rgb(0,0,0)" />
	<line x1="70.7107" y1="621.213" x2="67.1751" y2="617.678" stroke-width="1" stroke="rgb(0,0,0)" />
	<line x1="53.033" y1="638.891" x2="49.4975" y2="635.355" stroke-width="1" stroke="rgb(0,0,0)" />
	<line x1="17.6777" y1="603.536" x2="21.2132" y2="600" stroke-width="1" stroke="rgb(0,0,0)" />
	<line x1="35.3553" y1="585.858" x2="31.8198" y2="589.393" stroke-width="1" stroke="rgb(0,0,0)" />
	<line x1="53.033" y1="638.891" x2="56.5685" y2="635.355" stroke-width="1" stroke="rgb(0,0,0)" />
	<line x1="70.7107" y1="621.213" x2="67.1751" y2="624.749" stroke-width="1" stroke="rgb(0,0,0)" />
	<line x1="35.3553" y1="585.858" x2="38.8909" y2="589.393" stroke-width="1" stroke="rgb(0,0,0)" />
	<line x1="53.033" y1="568.18" x2="56.5685" y2="571.716" stroke-width="1" stroke="rgb(0,0,0)" />
	<line x1="88.3883" y1="603.536" x2="84.8528" y2="600" stroke-width="1" stroke="rgb(0,0,0)" />
	<line x1="70.7107" y1="621.213" x2="67.1751" y2="617.678" stroke-width="1" stroke="rgb(0,0,0)" />
	<line x1="35.3553" y1="585.858" x2="38.8909" y2="582.322" stroke-width="1" stroke="rgb(0,0,0)" />
	<line x1="53.033" y1="568.18" x2="49.4975" y2="571.716" stroke-width="1" stroke="rgb(0,0,0)" />
	<line x1="70.7107" y1="621.213" x2="74.2462" y2="617.678" stroke-width="1" stroke="rgb(0,0,0)" />
	<line x1="88.3883" y1="603.536" x2="84.8528" y2="607.071" stroke-width="1" stroke="rgb(0,0,0)" />
	<line x1="53.033" y1="568.18" x2="56.5685" y2="571.716" stroke-width="1" stroke="rgb(0,0,0)" />
	<line x1="70.7107" y1="550.503" x2="74.2462" y2="554.038" stroke-width="1" stroke="rgb(0,0,0)" />
	<line x1="106.066" y1="585.858" x2="102.53" y2="582.322" stroke-width="1" stroke="rgb(0,0,0)" />
	<line x1="88.3883" y1="603.536" x2="84.8528" y2="600" stroke-width="1" stroke="rgb(0,0,0)" />
	<line x1="53.033" y1="568.18" x2="56.5685" y2="564.645" stroke-width="1" stroke="rgb(0,0,0)" />
	<line x1="70.7107" y1="550.503" x2="67.1751" y2="554.038" stroke-width="1" stroke="rgb(0,0,0)" />
	<line x1="88.3883" y1="603.536" x2="91.9239" y2="600" stroke-width="1" stroke="rgb(0,0,0)" />
	<line x1="106.066" y1="585.858" x2="102.53" y2="589.393" stroke-width="1" stroke="rgb(0,0,0)" />
	<line x1="70.7107" y1="550.503" x2="74.2462" y2="554.038" stroke-width="1" stroke="rgb(0,0,0)" />
	<line x1="88.3883" y1="532.825" x2="91.9239" y2="536.36" stroke-width="1" stroke="rgb(0,0,0)" />
	<line x1="123.744" y1="568.18" x2="120.208" y2="564.645" stroke-width="1" stroke="rgb(0,0,0)" />
	<line x1="106.066" y1="585.858" x2="102.53" y2="582.322" stroke-width="1" stroke="rgb(0,0,0)" />
	<line x1="70.7107" y1="550.503" x2="74.2462" y2="546.967" stroke-width="1" stroke="rgb(0,0,0)" />
	<line x1="88.3883" y1="532.825" x2="84.8528" y2="536.36" stroke-width="1" stroke="rgb(0,0,0)" />
	<line x1="106.066" y1="585.858" x2="109.602" y2="582.322" stroke-width="1" stroke="rgb(0,0,0)" />
	<line x1="123.744" y1="568.18" x2="120.208" y2="571.716" stroke-width="1" stroke="rgb(0,0,0)" />
	<line x1="88.3883" y1="532.825" x2="91.9239" y2="536.36" stroke-width="1" stroke="rgb(0,0,0)" />
	<line x1="106.066" y1="515.147" x2="109.602" y2="518.683" stroke-width="1" stroke="rgb(0,0,0)" />
	<line x1="141.421" y1="550.503" x2="137.886" y2="546.967" stroke-width="1" stroke="rgb(0,0,0)" />
	<line x1="123.744" y1="568.18" x2="120.208" y2="564.645" stroke-width="1" stroke="rgb(0,0,0)" />
	<line x1="88.3883" y1="532.825" x2="91.9239" y2="529.289" stroke-width="1" stroke="rgb(0,0,0)" />
	<line x1="106.066" y1="515.147" x2="102.53" y2="518.683" stroke-width="1" stroke="rgb(0,0,0)" />
	<line x1="123.744" y1="568.18" x2="127.279" y2="564.645" stroke-width="1" stroke="rgb(0,0,0)" />
	<line x1="141.421" y1="550.503" x2="137.886" y2="554.038" stroke-width="1" stroke="rgb(0,0,0)" />
	<line x1="106.066" y1="515.147" x2="109.602" y2="518.683" stroke-width="1" stroke="rgb(0,0,0)" />
	<line x1="123.744" y1="497.47" x2="127.279" y2="501.005" stroke-width="1" stroke="rgb(0,0,0)" />
	<line x1="159.099" y1="532.825" x2="155.563" y2="529.289" stroke-width="1" stroke="rgb(0,0,0)" />
	<line x1="141.421" y1="550.503" x2="137.886" y2="546.967" stroke-width="1" stroke="rgb(0,0,0)" />
	<line x1="106.066" y1="515.147" x2="109.602" y2="511.612" stroke-width="1" stroke="rgb(0,0,0)" />
	<line x1="123.744" y1="497.47" x2="120.208" y2="501.005" stroke-width="1" stroke="rgb(0,0,0)" />
	<line x1="141.421" y1="550.503" x2="144.957" y2="546.967" stroke-width="1" stroke="rgb(0,0,0)" />
	<line x1="159.099" y1="532.825" x2="155.563" y2="536.36" stroke-width="1" stroke="rgb(0,0,0)" />
	<line x1="123.744" y1="497.47" x2="127.279" y2="501.005" stroke-width="1" stroke="rgb(0,0,0)" />
	<line x1="141.421" y1="479.792" x2="144.957" y2="483.327" stroke-width="1" stroke="rgb(0,0,0)" />
	<line x1="176.777" y1="515.147" x2="173.241" y2="511.612" stroke-width="1" stroke="rgb(0,0,0)" />
	<line x1="159.099" y1="532.825" x2="155.563" y2="529.289" stroke-width="1" stroke="rgb(0,0,0)" />
	<line x1="123.744" y1="497.47" x2="127.279" y2="493.934" stroke-width="1" stroke="rgb(0,0,0)" />
	<line x1="141.421" y1="479.792" x2="137.886" y2="483.327" stroke-width="1" stroke="rgb(0,0,0)" />
	<line x1="159.099" y1="532.825" x2="162.635" y2="529.289" stroke-width="1" stroke="rgb(0,0,0)" />
	<line x1="176.777" y1="515.147" x2="173.241" y2="518.683" stroke-width="1" stroke="rgb(0,0,0)" />
	<line x1="141.421" y1="479.792" x2="144.957" y2="483.327" stroke-width="1" stroke="rgb(0,0,0)" />
	<line x1="159.099" y1="462.114" x2="162.635" y2="465.65" stroke-width="1" stroke="rgb(0,0,0)" />
	<line x1="194.454" y1="497.47" x2="190.919" y2="493.934" stroke-width="1" stroke="rgb(0,0,0)" />
	<line x1="176.777" y1="515.147" x2="173.241" y2="511.612" stroke-width="1" stroke="rgb(0,0,0)" />
	<line x1="141.421" y1="479.792" x2="144.957" y2="476.256" stroke-width="1" stroke="rgb(0,0,0)" />
	<line x1="159.099" y1="462.114" x2="155.563" y2="465.65" stroke-width="1" stroke="rgb(0,0,0)" />
	<line x1="176.777" y1="515.147" x2="180.312" y2="511.612" stroke-width="1" stroke="rgb(0,0,0)" />
	<line x1="194.454" y1="497.47" x2="190.919" y2="501.005" stroke-width="1" stroke="rgb(0,0,0)" />
	<line x1="159.099" y1="462.114" x2="162.635" y2="465.65" stroke-width="1" stroke="rgb(0,0,0)" />
	<line x1="176.777" y1="444.437" x2="180.312" y2="447.972" stroke-width="1" stroke="rgb(0,0,0)" />
	<line x1="212.132" y1="479.792" x2="208.597" y2="476.256" stroke-width="1" stroke="rgb(0,0,0)" />
	<line x1="194.454" y1="497.47" x2="190.919" y2="493.934" stroke-width="1" stroke="rgb(0,0,0)" />
	<line x1="159.099" y1="462.114" x2="162.635" y2="458.579" stroke-width="1" stroke="rgb(0,0,0)" />
	<line x1="176.777" y1="444.437" x2="173.241" y2="447.972" stroke-width="1" stroke="rgb(0,0,0)" />
	<line x1="194.454" y1="497.47" x2="197.99" y2="493.934" stroke-width="1" stroke="rgb(0,0,0)" />
	<line x1="212.132" y1="479.792" x2="208.597" y2="483.327" stroke-width="1" stroke="rgb(0,0,0)" />
	<line x1="188.891" y1="425.251" x2="193.891" y2="425.251" stroke-width="1" stroke="rgb(0,0,0)" />
	<line x1="188.891" y1="400.251" x2="193.891" y2="400.251" stroke-width="1" stroke="rgb(0,0,0)" />
	<line x1="238.891" y1="400.251" x2="233.891" y2="400.251" stroke-width="1" stroke="rgb(0,0,0)" />
	<line x1="238.891" y1="425.251" x2="233.891" y2="425.251" stroke-width="1" stroke="rgb(0,0,0)" />
	<line x1="188.891" y1="425.251" x2="188.891" y2="420.251" stroke-width="1" stroke="rgb(0,0,0)" />
	<line x1="188.891" y1="400.251" x2="188.891" y2="405.251" stroke-width="1" stroke="rgb(0,0,0)" />
	<line x1="238.891" y1="425.251" x2="238.891" y2="420.251" stroke-width="1" stroke="rgb(0,0,0)" />
	<line x1="238.891" y1="400.251" x2="238.891" y2="405.251" stroke-width="1" stroke="rgb(0,0,0)" />
	<line x1="188.891" y1="400.251" x2="193.891" y2="400.251" stroke-width="1" stroke="rgb(0,0,0)" />
	<line x1="188.891" y1="375.251" x2="193.891" y2="375.251" stroke-width="1" stroke="rgb(0,0,0)" />
	<line x1="238.891" y1="375.251" x2="233.891" y2="375.251" stroke-width="1" stroke="rgb(0,0,0)" />
	<line x1="238.891" y1="400.251" x2="233.891" y2="400.251" stroke-width="1" stroke="rgb(0,0,0)" />
	<line x1="188.891" y1="400.251" x2="188.891" y2="395.251" stroke-width="1" stroke="rgb(0,0,0)" />
	<line x1="188.891" y1="375.251" x2="188.891" y2="380.251" stroke-width="1" stroke="rgb(0,0,0)" />
	<line x1="238.891" y1="400.251" x2="238.891" y2="395.251" stroke-width="1" stroke="rgb(0,0,0)" />
	<line x1="238.891" y1="375.251" x2="238.891" y2="380.251" stroke-width="1" stroke="rgb(0,0,0)" />
	<line x1="188.891" y1="375.251" x2="193.891" y2="375.251" stroke-width="1" stroke="rgb(0,0,0)" />
	<line x1="188.891" y1="350.251" x2="193.891" y2="350.251" stroke-width="1" stroke="rgb(0,0,0)" />
	<line x1="238.891" y1="350.251" x2="233.891" y2="350.251" stroke-width="1" stroke="rgb(0,0,0)" />
	<line x1="238.891" y1="375.251" x2="233.891" y2="375.251" stroke-width="1" stroke="rgb(0,0,0)" />
	<line x1="188.891" y1="375.251" x2="188.891" y2="370.251" stroke-width="1" stroke="rgb(0,0,0)" />
	<line x1="188.891" y1="350.251" x2="188.891" y2="355.251" stroke-width="1" stroke="rgb(0,0,0)" />
	<line x1="238.891" y1="375.251" x2="238.891" y2="370.251" stroke-width="1" stroke="rgb(0,0,0)" />
	<line x1="238.891" y1="350.251" x2="238.891" y2="355.251" stroke-width="1" stroke="rgb(0,0,0)" />
	<line x1="188.891" y1="350.251" x2="193.891" y2="350.251" stroke-width="1" stroke="rgb(0,0,0)" />
	<line x1="188.891" y1="325.251" x2="193.891" y2="325.251" stroke-width="1" stroke="rgb(0,0,0)" />
	<line x1="238.891" y1="325.251" x2="233.891" y2="325.251" stroke-width="1" stroke="rgb(0,0,0)" />
	<line x1="238.891" y1="350.251" x2="233.891" y2="350.251" stroke-width="1" stroke="rgb(0,0,0)" />
	<line x1="188.891" y1="350.251" x2="188.891" y2="345.251" stroke-width="1" stroke="rgb(0,0,0)" />
	<line x1="188.891" y1="325.251" x2="188.891" y2="330.251" stroke-width="1" stroke="rgb(0,0,0)" />
	<line x1="238.891" y1="350.251" x2="238.891" y2="345.251" stroke-width="1" stroke="rgb(0,0,0)" />
	<line x1="238.891" y1="325.251" x2="238.891" y2="330.251" stroke-width="1" stroke="rgb(0,0,0)" />
	<line x1="188.891" y1="325.251" x2="193.891" y2="325.251" stroke-width="1" stroke="rgb(0,0,0)" />
	<line x1="188.891" y1="300.251" x2="193.891" y2="300.251" stroke-width="1" stroke="rgb(0,0,0)" />
	<line x1="238.891" y1="300.251" x2="233.891" y2="300.251" stroke-width="1" stroke="rgb(0,0,0)" />
	<line x1="238.891" y1="325.251" x2="233.891" y2="325.251" stroke-width="1" stroke="rgb(0,0,0)" />
	<line x1="188.891" y1="325.251" x2="188.891" y2="320.251" stroke-width="1" stroke="rgb(0,0,0)" />
	<line x1="188.891" y1="300.251" x2="188.891" y2="305.251" stroke-width="1" stroke="rgb(0,0,0)" />
	<line x1="238.891" y1="325.251" x2="238.891" y2="320.251" stroke-width="1" stroke="rgb(0,0,0)" />
	<line x1="238.891" y1="300.251" x2="238.891" y2="305.251" stroke-width="1" stroke="rgb(0,0,0)" />
	<line x1="188.891" y1="300.251" x2="193.891" y2="300.251" stroke-width="1" stroke="rgb(0,0,0)" />
	<line x1="188.891" y1="275.251" x2="193.891" y2="275.251" stroke-width="1" stroke="rgb(0,0,0)" />
	<line x1="238.891" y1="275.251" x2="233.891" y2="275.251" stroke-width="1" stroke="rgb(0,0,0)" />
	<line x1="238.891" y1="300.251" x2="233.891" y2="300.251" stroke-width="1" stroke="rgb(0,0,0)" />
	<line x1="188.891" y1="300.251" x2="188.891" y2="295.251" stroke-width="1" stroke="rgb(0,0,0)" />
	<line x1="188.891" y1="275.251" x2="188.891" y2="280.251" stroke-width="1" stroke="rgb(0,0,0)" />
	<line x1="238.891" y1="300.251" x2="238.891" y2="295.251" stroke-width="1" stroke="rgb(0,0,0)" />
	<line x1="238.891" y1="275.251" x2="238.891" y2="280.251" stroke-width="1" stroke="rgb(0,0,0)" />
	<line x1="207.071" y1="214.142" x2="210.607" y2="217.678" stroke-width="1" stroke="rgb(0,0,0)" />
	<line x1="224.749" y1="196.464" x2="228.284" y2="200" stroke-width="1" stroke="rgb(0,0,0)" />
	<line x1="260.104" y1="231.82" x2="256.569" y2="228.284" stroke-width="1" stroke="rgb(0,0,0)" />
	<line x1="242.426" y1="249.497" x2="238.891" y2="245.962" stroke-width="1" stroke="rgb(0,0,0)" />
	<line x1="207.071" y1="214.142" x2="210.607" y2="210.607" stroke-width="1" stroke="rgb(0,0,0)" />
	<line x1="224.749" y1="196.464" x2="221.213" y2="200" stroke-width="1" stroke="rgb(0,0,0)" />
	<line x1="242.426" y1="249.497" x2="245.962" y2="245.962" stroke-width="1" stroke="rgb(0,0,0)" />
	<line x1="260.104" y1="231.82" x2="256.569" y2="235.355" stroke-width="1" stroke="rgb(0,0,0)" />
	<line x1="224.749" y1="196.464" x2="228.284" y2="200" stroke-width="1" stroke="rgb(0,0,0)" />
	<line x1="242.426" y1="178.787" x2="245.962" y2="182.322" stroke-width="1" stroke="rgb(0,0,0)" />
	<line x1="277.782" y1="214.142" x2="274.246" y2="210.607" stroke-width="1" stroke="rgb(0,0,0)" />
	<line x1="260.104" y1="231.82" x2="256.569" y2="228.284" stroke-width="1" stroke="rgb(0,0,0)" />
	<line x1="224.749" y1="196.464" x2="228.284" y2="192.929" stroke-width="1" stroke="rgb(0,0,0)" />
	<line x1="242.426" y1="178.787" x2="238.891" y2="182.322" stroke-width="1" stroke="rgb(0,0,0)" />
	<line x1="260.104" y1="231.82" x2="263.64" y2="228.284" stroke-width="1" stroke="rgb(0,0,0)" />
	<line x1="277.782" y1="214.142" x2="274.246" y2="217.678" stroke-width="1" stroke="rgb(0,0,0)" />
	<line x1="242.426" y1="178.787" x2="245.962" y2="182.322" stroke-width="1" stroke="rgb(0,0,0)" />
	<line x1="260.104" y1="161.109" x2="263.64" y2="164.645" stroke-width="1" stroke="rgb(0,0,0)" />
	<line x1="295.459" y1="196.464" x2="291.924" y2="192.929" stroke-width="1" stroke="rgb(0,0,0)" />
	<line x1="277.782" y1="214.142" x2="274.246" y2="210.607" stroke-width="1" stroke="rgb(0,0,0)" />
	<line x1="242.426" y1="178.787" x2="245.962" y2="175.251" stroke-width="1" stroke="rgb(0,0,0)" />
	<line x1="260.104" y1="161.109" x2="256.569" y2="164.645" stroke-width="1" stroke="rgb(0,0,0)" />
	<line x1="277.782" y1="214.142" x2="281.317" y2="210.607" stroke-width="1" stroke="rgb(0,0,0)" />
	<line x1="295.459" y1="196.464" x2="291.924" y2="200" stroke-width="1" stroke="rgb(0,0,0)" />
	<line x1="260.104" y1="161.109" x2="263.64" y2="164.645" stroke-width="1" stroke="rgb(0,0,0)" />
	<line x1="277.782" y1="143.431" x2="281.317" y2="146.967" stroke-width="1" stroke="rgb(0,0,0)" />
	<line x1="313.137" y1="178.787" x2="309.602" y2="175.251" stroke-width="1" stroke="rgb(0,0,0)" />
	<line x1="295.459" y1="196.464" x2="291.924" y2="192.929" stroke-width="1" stroke="rgb(0,0,0)" />
	<line x1="260.104" y1="161.109" x2="263.64" y2="157.574" stroke-width="1" stroke="rgb(0,0,0)" />
	<line x1="277.782" y1="143.431" x2="274.246" y2="146.967" stroke-width="1" stroke="rgb(0,0,0)" />
	<line x1="295.459" y1="196.464" x2="298.995" y2="192.929" stroke-width="1" stroke="rgb(0,0,0)" />
	<line x1="313.137" y1="178.787" x2="309.602" y2="182.322" stroke-width="1" stroke="rgb(0,0,0)" />
	<line x1="277.782" y1="143.431" x2="281.317" y2="146.967" stroke-width="1" stroke="rgb(0,0,0)" />
	<line x1="295.459" y1="125.754" x2="298.995" y2="129.289" stroke-width="1" stroke="rgb(0,0,0)" />
	<line x1="330.815" y1="161.109" x2="327.279" y2="157.574" stroke-width="1" stroke="rgb(0,0,0)" />
	<line x1="313.137" y1="178.787" x2="309.602" y2="175.251" stroke-width="1" stroke="rgb(0,0,0)" />
	<line x1="277.782" y1="143.431" x2="281.317" y2="139.896" stroke-width="1" stroke="rgb(0,0,0)" />
	<line x1="295.459" y1="125.754" x2="291.924" y2="129.289" stroke-width="1" stroke="rgb(0,0,0)" />
	<line x1="313.137" y1="178.787" x2="316.673" y2="175.251" stroke-width="1" stroke="rgb(0,0,0)" />
	<line x1="330.815" y1="161.109" x2="327.279" y2="164.645" stroke-width="1" stroke="rgb(0,0,0)" />
	<line x1="295.459" y1="125.754" x2="298.995" y2="129.289" stroke-width="1" stroke="rgb(0,0,0)" />
	<line x1="313.137" y1="108.076" x2="316.673" y2="111.612" stroke-width="1" stroke="rgb(0,0,0)" />
	<line x1="348.492" y1="143.431" x2="344.957" y2="139.896" stroke-width="1" stroke="rgb(0,0,0)" />
	<line x1="330.815" y1="161.109" x2="327.279" y2="157.574" stroke-width="1" stroke="rgb(0,0,0)" />
	<line x1="295.459" y1="125.754" x2="298.995" y2="122.218" stroke-width="1" stroke="rgb(0,0,0)" />
	<line x1="313.137" y1="108.076" x2="309.602" y2="111.612" stroke-width="1" stroke="rgb(0,0,0)" />
	<line x1="330.815" y1="161.109" x2="334.35" y2="157.574" stroke-width="1" stroke="rgb(0,0,0)" />
	<line x1="348.492" y1="143.431" x2="344.957" y2="146.967" stroke-width="1" stroke="rgb(0,0,0)" />
	<line x1="313.137" y1="108.076" x2="316.673" y2="111.612" stroke-width="1" stroke="rgb(0,0,0)" />
	<line x1="330.815" y1="90.3984" x2="334.35" y2="93.934" stroke-width="1" stroke="rgb(0,0,0)" />
	<line x1="366.17" y1="125.754" x2="362.635" y2="122.218" stroke-width="1" stroke="rgb(0,0,0)" />
	<line x1="348.492" y1="143.431" x2="344.957" y2="139.896" stroke-width="1" stroke="rgb(0,0,0)" />
	<line x1="313.137" y1="108.076" x2="316.673" y2="104.541" stroke-width="1" stroke="rgb(0,0,0)" />
	<line x1="330.815" y1="90.3984" x2="327.279" y2="93.934" stroke-width="1" stroke="rgb(0,0,0)" />
	<line x1="348.492" y1="143.431" x2="352.028" y2="139.896" stroke-width="1" stroke="rgb(0,0,0)" />
	<line x1="366.17" y1="125.754" x2="362.635" y2="129.289" stroke-width="1" stroke="rgb(0,0,0)" />
	<line x1="330.815" y1="90.3984" x2="334.35" y2="93.934" stroke-width="1" stroke="rgb(0,0,0)" />
	<line x1="348.492" y1="72.7208" x2="352.028" y2="76.2563" stroke-width="1" stroke="rgb(0,0,0)" />
	<line x1="383.848" y1="108.076" x2="380.312" y2="104.541" stroke-width="1" stroke="rgb(0,0,0)" />
	<line x1="366.17" y1="125.754" x2="362.635" y2="122.218" stroke-width="1" stroke="rgb(0,0,0)" />
	<line x1="330.815" y1="90.3984" x2="334.35" y2="86.8629" stroke-width="1" stroke="rgb(0,0,0)" />
	<line x1="348.492" y1="72.7208" x2="344.957" y2="76.2563" stroke-width="1" stroke="rgb(0,0,0)" />
	<line x1="366.17" y1="125.754" x2="369.706" y2="122.218" stroke-width="1" stroke="rgb(0,0,0)" />
	<line x1="383.848" y1="108.076" x2="380.312" y2="111.612" stroke-width="1" stroke="rgb(0,0,0)" />
	<line x1="348.492" y1="72.7208" x2="352.028" y2="76.2563" stroke-width="1" stroke="rgb(0,0,0)" />
	<line x1="366.17" y1="55.0431" x2="369.706" y2="58.5786" stroke-width="1" stroke="rgb(0,0,0)" />
	<line x1="401.525" y1="90.3984" x2="397.99" y2="86.8629" stroke-width="1" stroke="rgb(0,0,0)" />
	<line x1="383.848" y1="108.076" x2="380.312" y2="104.541" stroke-width="1" stroke="rgb(0,0,0)" />
	<line x1="348.492" y1="72.7208" x2="352.028" y2="69.1852" stroke-width="1" stroke="rgb(0,0,0)" />
	<line x1="366.17" y1="55.0431" x2="362.635" y2="58.5786" stroke-width="1" stroke="rgb(0,0,0)" />
	<line x1="383.848" y1="108.076" x2="387.383" y2="104.541" stroke-width="1" stroke="rgb(0,0,0)" />
	<line x1="401.525" y1="90.3984" x2="397.99" y2="93.934" stroke-width="1" stroke="rgb(0,0,0)" />
	<line x1="366.17" y1="55.0431" x2="369.706" y2="58.5786" stroke-width="1" stroke="rgb(0,0,0)" />
	<line x1="383.848" y1="37.3654" x2="387.383" y2="40.901" stroke-width="1" stroke="rgb(0,0,0)" />
	<line x1="419.203" y1="72.7208" x2="415.668" y2="69.1852" stroke-width="1" stroke="rgb(0,0,0)" />
	<line x1="401.525" y1="90.3984" x2="397.99" y2="86.8629" stroke-width="1" stroke="rgb(0,0,0)" />
	<line x1="366.17" y1="55.0431" x2="369.706" y2="51.5076" stroke-width="1" stroke="rgb(0,0,0)" />
	<line x1="383.848" y1="37.3654" x2="380.312" y2="40.901" stroke-width="1" stroke="rgb(0,0,0)" />
	<line x1="401.525" y1="90.3984" x2="405.061" y2="86.8629" stroke-width="1" stroke="rgb(0,0,0)" />
	<line x1="419.203" y1="72.7208" x2="415.668" y2="76.2563" stroke-width="1" stroke="rgb(0,0,0)" />
	<polygon points="68.1802,482.322 48.3812,490.808 51.9167,494.343 37.7746,508.485 42.0172,512.728 56.1594,498.586 59.6949,502.121 68.1802,482.322 " fill="rgb(238,144,144)" stroke-width="2.5" stroke="rgb(255,0,0)" >
		<animateTransform attributeName="transform" attributeType="XML" type="translate" from="0,-0" to="28.2843,-28.2843" dur="1s" repeatCount="indefinite" />
	</polygon>
	<polygon points="138.891,353.033 130.891,373.033 135.891,373.033 135.891,393.033 141.891,393.033 141.891,373.033 146.891,373.033 138.891,353.033 " fill="rgb(238,144,144)" stroke-width="2.5" stroke="rgb(255,0,0)" >
		<animateTransform attributeName="transform" attributeType="XML" type="translate" from="0,-0" to="0,-40" dur="1s" repeatCount="indefinite" />
	</polygon>
	<polygon points="268.18,82.3223 248.381,90.8076 251.917,94.3431 237.775,108.485 242.017,112.728 256.159,98.5858 259.695,102.121 268.18,82.3223 " fill="rgb(238,144,144)" stroke-width="2.5" stroke="rgb(255,0,0)" >
		<animateTransform attributeName="transform" attributeType="XML" type="translate" from="0,-0" to="28.2843,-28.2843" dur="1s" repeatCount="indefinite" />
	</polygon>
</svg>
