<?xml version="1.0" standalone="no" ?>
<!DOCTYPE svg PUBLIC "-//W3C//DTD SVG 1.1//EN" "http://www.w3.org/Graphics/SVG/1.1/DTD/svg11.dtd">
<svg width="555px" height="363px" xmlns="http://www.w3.org/2000/svg" version="1.1" >
	<polygon points="0,363 555,363 555,0 0,0 " fill="rgb(211,211,211)" />
	<polygon points="42.8746,348.423 45.4471,352.71 28.2973,363 0,315.838 17.1499,305.548 " fill="rgb(144,238,144)" stroke-width="1.5" stroke="rgb(0,128,0)" />
	<polygon points="510.208,9.71291 527.358,-0.577001 555.655,46.5851 538.506,56.875 535.933,52.5876 " fill="rgb(144,238,144)" stroke-width="1.5" stroke="rgb(0,128,0)" />
	<line x1="42.8746" y1="348.423" x2="40.3022" y2="344.135" stroke-width="1" stroke="rgb(0,0,0)" />
	<line x1="64.312" y1="335.56" x2="61.7395" y2="331.273" stroke-width="1" stroke="rgb(0,0,0)" />
	<line x1="38.5872" y1="292.686" x2="41.1597" y2="296.973" stroke-width="1" stroke="rgb(0,0,0)" />
	<line x1="17.1499" y1="305.548" x2="19.7223" y2="309.835" stroke-width="1" stroke="rgb(0,0,0)" />
	<line x1="42.8746" y1="348.423" x2="47.1621" y2="345.85" stroke-width="1" stroke="rgb(0,0,0)" />
	<line x1="64.312" y1="335.56" x2="60.0245" y2="338.133" stroke-width="1" stroke="rgb(0,0,0)" />
	<line x1="17.1499" y1="305.548" x2="21.4373" y2="302.975" stroke-width="1" stroke="rgb(0,0,0)" />
	<line x1="38.5872" y1="292.686" x2="34.2997" y2="295.258" stroke-width="1" stroke="rgb(0,0,0)" />
	<line x1="64.312" y1="335.56" x2="61.7395" y2="331.273" stroke-width="1" stroke="rgb(0,0,0)" />
	<line x1="85.7493" y1="322.698" x2="83.1768" y2="318.41" stroke-width="1" stroke="rgb(0,0,0)" />
	<line x1="60.0245" y1="279.823" x2="62.597" y2="284.111" stroke-width="1" stroke="rgb(0,0,0)" />
	<line x1="38.5872" y1="292.686" x2="41.1597" y2="296.973" stroke-width="1" stroke="rgb(0,0,0)" />
	<line x1="64.312" y1="335.56" x2="68.5994" y2="332.988" stroke-width="1" stroke="rgb(0,0,0)" />
	<line x1="85.7493" y1="322.698" x2="81.4618" y2="325.27" stroke-width="1" stroke="rgb(0,0,0)" />
	<line x1="38.5872" y1="292.686" x2="42.8746" y2="290.113" stroke-width="1" stroke="rgb(0,0,0)" />
	<line x1="60.0245" y1="279.823" x2="55.737" y2="282.396" stroke-width="1" stroke="rgb(0,0,0)" />
	<line x1="85.7493" y1="322.698" x2="83.1768" y2="318.41" stroke-width="1" stroke="rgb(0,0,0)" />
	<line x1="107.187" y1="309.835" x2="104.614" y2="305.548" stroke-width="1" stroke="rgb(0,0,0)" />
	<line x1="81.4618" y1="266.961" x2="84.0343" y2="271.248" stroke-width="1" stroke="rgb(0,0,0)" />
	<line x1="60.0245" y1="279.823" x2="62.597" y2="284.111" stroke-width="1" stroke="rgb(0,0,0)" />
	<line x1="85.7493" y1="322.698" x2="90.0368" y2="320.125" stroke-width="1" stroke="rgb(0,0,0)" />
	<line x1="107.187" y1="309.835" x2="102.899" y2="312.408" stroke-width="1" stroke="rgb(0,0,0)" />
	<line x1="60.0245" y1="279.823" x2="64.312" y2="277.251" stroke-width="1" stroke="rgb(0,0,0)" />
	<line x1="81.4618" y1="266.961" x2="77.1744" y2="269.533" stroke-width="1" stroke="rgb(0,0,0)" />
	<line x1="107.187" y1="309.835" x2="104.614" y2="305.548" stroke-width="1" stroke="rgb(0,0,0)" />
	<line x1="128.624" y1="296.973" x2="126.051" y2="292.686" stroke-width="1" stroke="rgb(0,0,0)" />
	<line x1="102.899" y1="254.098" x2="105.472" y2="258.386" stroke-width="1" stroke="rgb(0,0,0)" />
	<line x1="81.4618" y1="266.961" x2="84.0343" y2="271.248" stroke-width="1" stroke="rgb(0,0,0)" />
	<line x1="107.187" y1="309.835" x2="111.474" y2="307.263" stroke-width="1" stroke="rgb(0,0,0)" />
	<line x1="128.624" y1="296.973" x2="124.336" y2="299.546" stroke-width="1" stroke="rgb(0,0,0)" />
	<line x1="81.4618" y1="266.961" x2="85.7493" y2="264.388" stroke-width="1" stroke="rgb(0,0,0)" />
	<line x1="102.899" y1="254.098" x2="98.6117" y2="256.671" stroke-width="1" stroke="rgb(0,0,0)" />
	<line x1="128.624" y1="296.973" x2="126.051" y2="292.686" stroke-width="1" stroke="rgb(0,0,0)" />
	<line x1="150.061" y1="284.111" x2="147.489" y2="279.823" stroke-width="1" stroke="rgb(0,0,0)" />
	<line x1="124.336" y1="241.236" x2="126.909" y2="245.523" stroke-width="1" stroke="rgb(0,0,0)" />
	<line x1="102.899" y1="254.098" x2="105.472" y2="258.386" stroke-width="1" stroke="rgb(0,0,0)" />
	<line x1="128.624" y1="296.973" x2="132.911" y2="294.401" stroke-width="1" stroke="rgb(0,0,0)" />
	<line x1="150.061" y1="284.111" x2="145.774" y2="286.683" stroke-width="1" stroke="rgb(0,0,0)" />
	<line x1="102.899" y1="254.098" x2="107.187" y2="251.526" stroke-width="1" stroke="rgb(0,0,0)" />
	<line x1="124.336" y1="241.236" x2="120.049" y2="243.808" stroke-width="1" stroke="rgb(0,0,0)" />
	<line x1="150.061" y1="284.111" x2="147.489" y2="279.823" stroke-width="1" stroke="rgb(0,0,0)" />
	<line x1="171.499" y1="271.248" x2="168.926" y2="266.961" stroke-width="1" stroke="rgb(0,0,0)" />
	<line x1="145.774" y1="228.374" x2="148.346" y2="232.661" stroke-width="1" stroke="rgb(0,0,0)" />
	<line x1="124.336" y1="241.236" x2="126.909" y2="245.523" stroke-width="1" stroke="rgb(0,0,0)" />
	<line x1="150.061" y1="284.111" x2="154.349" y2="281.538" stroke-width="1" stroke="rgb(0,0,0)" />
	<line x1="171.499" y1="271.248" x2="167.211" y2="273.821" stroke-width="1" stroke="rgb(0,0,0)" />
	<line x1="124.336" y1="241.236" x2="128.624" y2="238.664" stroke-width="1" stroke="rgb(0,0,0)" />
	<line x1="145.774" y1="228.374" x2="141.486" y2="230.946" stroke-width="1" stroke="rgb(0,0,0)" />
	<line x1="171.499" y1="271.248" x2="168.926" y2="266.961" stroke-width="1" stroke="rgb(0,0,0)" />
	<line x1="192.936" y1="258.386" x2="190.363" y2="254.098" stroke-width="1" stroke="rgb(0,0,0)" />
	<line x1="167.211" y1="215.511" x2="169.784" y2="219.799" stroke-width="1" stroke="rgb(0,0,0)" />
	<line x1="145.774" y1="228.374" x2="148.346" y2="232.661" stroke-width="1" stroke="rgb(0,0,0)" />
	<line x1="171.499" y1="271.248" x2="175.786" y2="268.676" stroke-width="1" stroke="rgb(0,0,0)" />
	<line x1="192.936" y1="258.386" x2="188.648" y2="260.958" stroke-width="1" stroke="rgb(0,0,0)" />
	<line x1="145.774" y1="228.374" x2="150.061" y2="225.801" stroke-width="1" stroke="rgb(0,0,0)" />
	<line x1="167.211" y1="215.511" x2="162.924" y2="218.084" stroke-width="1" stroke="rgb(0,0,0)" />
	<line x1="192.936" y1="258.386" x2="190.363" y2="254.098" stroke-width="1" stroke="rgb(0,0,0)" />
	<line x1="214.373" y1="245.523" x2="211.801" y2="241.236" stroke-width="1" stroke="rgb(0,0,0)" />
	<line x1="188.648" y1="202.649" x2="191.221" y2="206.936" stroke-width="1" stroke="rgb(0,0,0)" />
	<line x1="167.211" y1="215.511" x2="169.784" y2="219.799" stroke-width="1" stroke="rgb(0,0,0)" />
	<line x1="192.936" y1="258.386" x2="197.223" y2="255.813" stroke-width="1" stroke="rgb(0,0,0)" />
	<line x1="214.373" y1="245.523" x2="210.086" y2="248.096" stroke-width="1" stroke="rgb(0,0,0)" />
	<line x1="167.211" y1="215.511" x2="171.499" y2="212.939" stroke-width="1" stroke="rgb(0,0,0)" />
	<line x1="188.648" y1="202.649" x2="184.361" y2="205.221" stroke-width="1" stroke="rgb(0,0,0)" />
	<line x1="214.373" y1="245.523" x2="211.801" y2="241.236" stroke-width="1" stroke="rgb(0,0,0)" />
	<line x1="235.811" y1="232.661" x2="233.238" y2="228.374" stroke-width="1" stroke="rgb(0,0,0)" />
	<line x1="210.086" y1="189.786" x2="212.658" y2="194.074" stroke-width="1" stroke="rgb(0,0,0)" />
	<line x1="188.648" y1="202.649" x2="191.221" y2="206.936" stroke-width="1" stroke="rgb(0,0,0)" />
	<line x1="214.373" y1="245.523" x2="218.661" y2="242.951" stroke-width="1" stroke="rgb(0,0,0)" />
	<line x1="235.811" y1="232.661" x2="231.523" y2="235.234" stroke-width="1" stroke="rgb(0,0,0)" />
	<line x1="188.648" y1="202.649" x2="192.936" y2="200.076" stroke-width="1" stroke="rgb(0,0,0)" />
	<line x1="210.086" y1="189.786" x2="205.798" y2="192.359" stroke-width="1" stroke="rgb(0,0,0)" />
	<line x1="235.811" y1="232.661" x2="233.238" y2="228.374" stroke-width="1" stroke="rgb(0,0,0)" />
	<line x1="257.248" y1="219.799" x2="254.675" y2="215.511" stroke-width="1" stroke="rgb(0,0,0)" />
	<line x1="231.523" y1="176.924" x2="234.096" y2="181.211" stroke-width="1" stroke="rgb(0,0,0)" />
	<line x1="210.086" y1="189.786" x2="212.658" y2="194.074" stroke-width="1" stroke="rgb(0,0,0)" />
	<line x1="235.811" y1="232.661" x2="240.098" y2="230.089" stroke-width="1" stroke="rgb(0,0,0)" />
	<line x1="257.248" y1="219.799" x2="252.96" y2="222.371" stroke-width="1" stroke="rgb(0,0,0)" />
	<line x1="210.086" y1="189.786" x2="214.373" y2="187.214" stroke-width="1" stroke="rgb(0,0,0)" />
	<line x1="231.523" y1="176.924" x2="227.236" y2="179.497" stroke-width="1" stroke="rgb(0,0,0)" />
	<line x1="257.248" y1="219.799" x2="254.675" y2="215.511" stroke-width="1" stroke="rgb(0,0,0)" />
	<line x1="278.685" y1="206.936" x2="276.113" y2="202.649" stroke-width="1" stroke="rgb(0,0,0)" />
	<line x1="252.96" y1="164.062" x2="255.533" y2="168.349" stroke-width="1" stroke="rgb(0,0,0)" />
	<line x1="231.523" y1="176.924" x2="234.096" y2="181.211" stroke-width="1" stroke="rgb(0,0,0)" />
	<line x1="257.248" y1="219.799" x2="261.535" y2="217.226" stroke-width="1" stroke="rgb(0,0,0)" />
	<line x1="278.685" y1="206.936" x2="274.398" y2="209.509" stroke-width="1" stroke="rgb(0,0,0)" />
	<line x1="231.523" y1="176.924" x2="235.811" y2="174.352" stroke-width="1" stroke="rgb(0,0,0)" />
	<line x1="252.96" y1="164.062" x2="248.673" y2="166.634" stroke-width="1" stroke="rgb(0,0,0)" />
	<line x1="278.685" y1="206.936" x2="276.113" y2="202.649" stroke-width="1" stroke="rgb(0,0,0)" />
	<line x1="300.123" y1="194.074" x2="297.55" y2="189.786" stroke-width="1" stroke="rgb(0,0,0)" />
	<line x1="274.398" y1="151.199" x2="276.97" y2="155.487" stroke-width="1" stroke="rgb(0,0,0)" />
	<line x1="252.96" y1="164.062" x2="255.533" y2="168.349" stroke-width="1" stroke="rgb(0,0,0)" />
	<line x1="278.685" y1="206.936" x2="282.973" y2="204.364" stroke-width="1" stroke="rgb(0,0,0)" />
	<line x1="300.123" y1="194.074" x2="295.835" y2="196.646" stroke-width="1" stroke="rgb(0,0,0)" />
	<line x1="252.96" y1="164.062" x2="257.248" y2="161.489" stroke-width="1" stroke="rgb(0,0,0)" />
	<line x1="274.398" y1="151.199" x2="270.11" y2="153.772" stroke-width="1" stroke="rgb(0,0,0)" />
	<line x1="300.123" y1="194.074" x2="297.55" y2="189.786" stroke-width="1" stroke="rgb(0,0,0)" />
	<line x1="321.56" y1="181.211" x2="318.987" y2="176.924" stroke-width="1" stroke="rgb(0,0,0)" />
	<line x1="295.835" y1="138.337" x2="298.408" y2="142.624" stroke-width="1" stroke="rgb(0,0,0)" />
	<line x1="274.398" y1="151.199" x2="276.97" y2="155.487" stroke-width="1" stroke="rgb(0,0,0)" />
	<line x1="300.123" y1="194.074" x2="304.41" y2="191.501" stroke-width="1" stroke="rgb(0,0,0)" />
	<line x1="321.56" y1="181.211" x2="317.272" y2="183.784" stroke-width="1" stroke="rgb(0,0,0)" />
	<line x1="274.398" y1="151.199" x2="278.685" y2="148.627" stroke-width="1" stroke="rgb(0,0,0)" />
	<line x1="295.835" y1="138.337" x2="291.548" y2="140.909" stroke-width="1" stroke="rgb(0,0,0)" />
	<line x1="321.56" y1="181.211" x2="318.987" y2="176.924" stroke-width="1" stroke="rgb(0,0,0)" />
	<line x1="342.997" y1="168.349" x2="340.425" y2="164.062" stroke-width="1" stroke="rgb(0,0,0)" />
	<line x1="317.272" y1="125.474" x2="319.845" y2="129.762" stroke-width="1" stroke="rgb(0,0,0)" />
	<line x1="295.835" y1="138.337" x2="298.408" y2="142.624" stroke-width="1" stroke="rgb(0,0,0)" />
	<line x1="321.56" y1="181.211" x2="325.847" y2="178.639" stroke-width="1" stroke="rgb(0,0,0)" />
	<line x1="342.997" y1="168.349" x2="338.71" y2="170.922" stroke-width="1" stroke="rgb(0,0,0)" />
	<line x1="295.835" y1="138.337" x2="300.123" y2="135.764" stroke-width="1" stroke="rgb(0,0,0)" />
	<line x1="317.272" y1="125.474" x2="312.985" y2="128.047" stroke-width="1" stroke="rgb(0,0,0)" />
	<line x1="342.997" y1="168.349" x2="340.425" y2="164.062" stroke-width="1" stroke="rgb(0,0,0)" />
	<line x1="364.434" y1="155.487" x2="361.862" y2="151.199" stroke-width="1" stroke="rgb(0,0,0)" />
	<line x1="338.71" y1="112.612" x2="341.282" y2="116.9" stroke-width="1" stroke="rgb(0,0,0)" />
	<line x1="317.272" y1="125.474" x2="319.845" y2="129.762" stroke-width="1" stroke="rgb(0,0,0)" />
	<line x1="342.997" y1="168.349" x2="347.285" y2="165.777" stroke-width="1" stroke="rgb(0,0,0)" />
	<line x1="364.434" y1="155.487" x2="360.147" y2="158.059" stroke-width="1" stroke="rgb(0,0,0)" />
	<line x1="317.272" y1="125.474" x2="321.56" y2="122.902" stroke-width="1" stroke="rgb(0,0,0)" />
	<line x1="338.71" y1="112.612" x2="334.422" y2="115.185" stroke-width="1" stroke="rgb(0,0,0)" />
	<line x1="364.434" y1="155.487" x2="361.862" y2="151.199" stroke-width="1" stroke="rgb(0,0,0)" />
	<line x1="385.872" y1="142.624" x2="383.299" y2="138.337" stroke-width="1" stroke="rgb(0,0,0)" />
	<line x1="360.147" y1="99.7497" x2="362.72" y2="104.037" stroke-width="1" stroke="rgb(0,0,0)" />
	<line x1="338.71" y1="112.612" x2="341.282" y2="116.9" stroke-width="1" stroke="rgb(0,0,0)" />
	<line x1="364.434" y1="155.487" x2="368.722" y2="152.914" stroke-width="1" stroke="rgb(0,0,0)" />
	<line x1="385.872" y1="142.624" x2="381.584" y2="145.197" stroke-width="1" stroke="rgb(0,0,0)" />
	<line x1="338.71" y1="112.612" x2="342.997" y2="110.04" stroke-width="1" stroke="rgb(0,0,0)" />
	<line x1="360.147" y1="99.7497" x2="355.86" y2="102.322" stroke-width="1" stroke="rgb(0,0,0)" />
	<line x1="385.872" y1="142.624" x2="383.299" y2="138.337" stroke-width="1" stroke="rgb(0,0,0)" />
	<line x1="407.309" y1="129.762" x2="404.737" y2="125.474" stroke-width="1" stroke="rgb(0,0,0)" />
	<line x1="381.584" y1="86.8873" x2="384.157" y2="91.1747" stroke-width="1" stroke="rgb(0,0,0)" />
	<line x1="360.147" y1="99.7497" x2="362.72" y2="104.037" stroke-width="1" stroke="rgb(0,0,0)" />
	<line x1="385.872" y1="142.624" x2="390.159" y2="140.052" stroke-width="1" stroke="rgb(0,0,0)" />
	<line x1="407.309" y1="129.762" x2="403.022" y2="132.334" stroke-width="1" stroke="rgb(0,0,0)" />
	<line x1="360.147" y1="99.7497" x2="364.434" y2="97.1772" stroke-width="1" stroke="rgb(0,0,0)" />
	<line x1="381.584" y1="86.8873" x2="377.297" y2="89.4598" stroke-width="1" stroke="rgb(0,0,0)" />
	<line x1="407.309" y1="129.762" x2="404.737" y2="125.474" stroke-width="1" stroke="rgb(0,0,0)" />
	<line x1="428.746" y1="116.9" x2="426.174" y2="112.612" stroke-width="1" stroke="rgb(0,0,0)" />
	<line x1="403.022" y1="74.0249" x2="405.594" y2="78.3123" stroke-width="1" stroke="rgb(0,0,0)" />
	<line x1="381.584" y1="86.8873" x2="384.157" y2="91.1747" stroke-width="1" stroke="rgb(0,0,0)" />
	<line x1="407.309" y1="129.762" x2="411.597" y2="127.189" stroke-width="1" stroke="rgb(0,0,0)" />
	<line x1="428.746" y1="116.9" x2="424.459" y2="119.472" stroke-width="1" stroke="rgb(0,0,0)" />
	<line x1="381.584" y1="86.8873" x2="385.872" y2="84.3148" stroke-width="1" stroke="rgb(0,0,0)" />
	<line x1="403.022" y1="74.0249" x2="398.734" y2="76.5974" stroke-width="1" stroke="rgb(0,0,0)" />
	<line x1="428.746" y1="116.9" x2="426.174" y2="112.612" stroke-width="1" stroke="rgb(0,0,0)" />
	<line x1="450.184" y1="104.037" x2="447.611" y2="99.7497" stroke-width="1" stroke="rgb(0,0,0)" />
	<line x1="424.459" y1="61.1625" x2="427.031" y2="65.45" stroke-width="1" stroke="rgb(0,0,0)" />
	<line x1="403.022" y1="74.0249" x2="405.594" y2="78.3123" stroke-width="1" stroke="rgb(0,0,0)" />
	<line x1="428.746" y1="116.9" x2="433.034" y2="114.327" stroke-width="1" stroke="rgb(0,0,0)" />
	<line x1="450.184" y1="104.037" x2="445.896" y2="106.61" stroke-width="1" stroke="rgb(0,0,0)" />
	<line x1="403.022" y1="74.0249" x2="407.309" y2="71.4524" stroke-width="1" stroke="rgb(0,0,0)" />
	<line x1="424.459" y1="61.1625" x2="420.172" y2="63.735" stroke-width="1" stroke="rgb(0,0,0)" />
	<line x1="450.184" y1="104.037" x2="447.611" y2="99.7497" stroke-width="1" stroke="rgb(0,0,0)" />
	<line x1="471.621" y1="91.1747" x2="469.049" y2="86.8873" stroke-width="1" stroke="rgb(0,0,0)" />
	<line x1="445.896" y1="48.3001" x2="448.469" y2="52.5876" stroke-width="1" stroke="rgb(0,0,0)" />
	<line x1="424.459" y1="61.1625" x2="427.031" y2="65.45" stroke-width="1" stroke="rgb(0,0,0)" />
	<line x1="450.184" y1="104.037" x2="454.471" y2="101.465" stroke-width="1" stroke="rgb(0,0,0)" />
	<line x1="471.621" y1="91.1747" x2="467.334" y2="93.7472" stroke-width="1" stroke="rgb(0,0,0)" />
	<line x1="424.459" y1="61.1625" x2="428.746" y2="58.59" stroke-width="1" stroke="rgb(0,0,0)" />
	<line x1="445.896" y1="48.3001" x2="441.609" y2="50.8726" stroke-width="1" stroke="rgb(0,0,0)" />
	<line x1="471.621" y1="91.1747" x2="469.049" y2="86.8873" stroke-width="1" stroke="rgb(0,0,0)" />
	<line x1="493.058" y1="78.3123" x2="490.486" y2="74.0249" stroke-width="1" stroke="rgb(0,0,0)" />
	<line x1="467.334" y1="35.4377" x2="469.906" y2="39.7252" stroke-width="1" stroke="rgb(0,0,0)" />
	<line x1="445.896" y1="48.3001" x2="448.469" y2="52.5876" stroke-width="1" stroke="rgb(0,0,0)" />
	<line x1="471.621" y1="91.1747" x2="475.909" y2="88.6023" stroke-width="1" stroke="rgb(0,0,0)" />
	<line x1="493.058" y1="78.3123" x2="488.771" y2="80.8848" stroke-width="1" stroke="rgb(0,0,0)" />
	<line x1="445.896" y1="48.3001" x2="450.184" y2="45.7276" stroke-width="1" stroke="rgb(0,0,0)" />
	<line x1="467.334" y1="35.4377" x2="463.046" y2="38.0102" stroke-width="1" stroke="rgb(0,0,0)" />
	<line x1="493.058" y1="78.3123" x2="490.486" y2="74.0249" stroke-width="1" stroke="rgb(0,0,0)" />
	<line x1="514.496" y1="65.45" x2="511.923" y2="61.1625" stroke-width="1" stroke="rgb(0,0,0)" />
	<line x1="488.771" y1="22.5753" x2="491.343" y2="26.8628" stroke-width="1" stroke="rgb(0,0,0)" />
	<line x1="467.334" y1="35.4377" x2="469.906" y2="39.7252" stroke-width="1" stroke="rgb(0,0,0)" />
	<line x1="493.058" y1="78.3123" x2="497.346" y2="75.7399" stroke-width="1" stroke="rgb(0,0,0)" />
	<line x1="514.496" y1="65.45" x2="510.208" y2="68.0224" stroke-width="1" stroke="rgb(0,0,0)" />
	<line x1="467.334" y1="35.4377" x2="471.621" y2="32.8652" stroke-width="1" stroke="rgb(0,0,0)" />
	<line x1="488.771" y1="22.5753" x2="484.484" y2="25.1478" stroke-width="1" stroke="rgb(0,0,0)" />
	<line x1="514.496" y1="65.45" x2="511.923" y2="61.1625" stroke-width="1" stroke="rgb(0,0,0)" />
	<line x1="535.933" y1="52.5876" x2="533.361" y2="48.3001" stroke-width="1" stroke="rgb(0,0,0)" />
	<line x1="510.208" y1="9.71291" x2="512.781" y2="14.0004" stroke-width="1" stroke="rgb(0,0,0)" />
	<line x1="488.771" y1="22.5753" x2="491.343" y2="26.8628" stroke-width="1" stroke="rgb(0,0,0)" />
	<line x1="514.496" y1="65.45" x2="518.783" y2="62.8775" stroke-width="1" stroke="rgb(0,0,0)" />
	<line x1="535.933" y1="52.5876" x2="531.646" y2="55.16" stroke-width="1" stroke="rgb(0,0,0)" />
	<line x1="488.771" y1="22.5753" x2="493.058" y2="20.0028" stroke-width="1" stroke="rgb(0,0,0)" />
	<line x1="510.208" y1="9.71291" x2="505.921" y2="12.2854" stroke-width="1" stroke="rgb(0,0,0)" />
	<polygon points="315.129,243.38 293.863,246.81 296.435,251.097 279.285,261.387 282.372,266.532 299.522,256.242 302.095,260.53 315.129,243.38 " fill="rgb(238,144,144)" stroke-width="1.5" stroke="rgb(255,0,0)" >
		<animateTransform attributeName="transform" attributeType="XML" type="translate" from="0,0" to="34.2997,20.5798" dur="1s" repeatCount="indefinite" />
	</polygon>
</svg>
